<?xml version="1.0" encoding="UTF-8"?>
<svg viewBox="0 0 105.65 105.65" xmlns="http://www.w3.org/2000/svg">
<g transform="translate(0) scale(2.113)" fill="#1e2127" name="monogram_container" rel="inversefill" xmlns:name="monogram_container_inversefill">
<title xmlns="http://www.w3.org/2000/svg">assets</title>
<circle cx="25" cy="25" r="25" xmlns="http://www.w3.org/2000/svg"/>
</g>
<g transform="translate(26.5 5.65)" fill="#fff" name="monogram" rel="symbolfill" xmlns:name="monogram_symbolfill">
<path d="m13.95 46.575v0.225c-0.075 0.15-0.075 0.3-0.075 0.45 0 0.225 0.075 0.375 0.075 0.525v0.525s0 0.3 0.075 0.525c0 0.15 0 0.3 0.075 0.525 0 0.15 0 0.3 0.075 0.375 0 0.225 0.075 0.375 0.075 0.525s0.075 0.3 0.15 0.45c0.075 0.3 0.15 0.6 0.225 0.975l0.225 0.45c0 0.15 0.075 0.225 0.15 0.375 0.075 0.3 0.225 0.6 0.375 0.9 0.075 0.15 0.15 0.3 0.3 0.525 0.075 0.15 0.15 0.3 0.225 0.375 0.15 0.3 0.375 0.6 0.525 0.9l0.3 0.3c0.075 0.15 0.15 0.3 0.225 0.375 0.225 0.225 0.45 0.525 0.675 0.75l0.675 0.675c0.3 0.3 0.525 0.45 0.825 0.675 0.225 0.225 0.45 0.45 0.75 0.6 0.525 0.375 1.05 0.75 1.65 0.975 0.15 0.075 0.3 0.15 0.375 0.225 0.225 0.075 0.375 0.15 0.6 0.225 0.15 0.075 0.225 0.075 0.375 0.15s0.3 0.15 0.45 0.15c0.375 0.15 0.675 0.225 0.975 0.3s0.675 0.15 0.975 0.225 0.675 0.075 0.975 0.15c0.3 0 0.6 0.075 0.9 0.075h1.05c0.3 0 0.675 0 1.05-0.075 0.6-0.075 1.275-0.15 1.875-0.3s1.2-0.375 1.8-0.6c0.15-0.075 0.3-0.075 0.45-0.15s0.3-0.15 0.525-0.225h4.95c-0.075 0-0.15 0.075-0.15 0.15-0.075 0-0.15 0.075-0.225 0.15-0.45 0.375-0.975 0.75-1.5 1.125-0.225 0.15-0.525 0.3-0.825 0.45-0.3 0.225-0.6 0.375-0.9 0.525-0.075 0.075-0.225 0.075-0.375 0.15l-0.45 0.225c-0.3 0.15-0.6 0.225-0.9 0.375-0.3 0.075-0.6 0.225-0.9 0.3-0.225 0.075-0.375 0.075-0.525 0.15-0.15 0-0.3 0.075-0.45 0.075-0.15 0.075-0.3 0.075-0.525 0.15h-0.15c-0.15 0.075-0.225 0.075-0.375 0.075-0.3 0.075-0.6 0.075-0.975 0.15-0.6 0.075-1.275 0.075-1.95 0.075h-0.45-0.45c-0.3 0-0.675-0.075-0.975-0.075-0.375-0.075-0.675-0.15-1.05-0.15l-0.9-0.225c-0.375-0.075-0.675-0.225-1.05-0.3-0.225-0.075-0.525-0.225-0.825-0.3-0.6-0.225-1.2-0.525-1.8-0.75-0.3-0.15-0.6-0.3-0.825-0.525-0.3-0.15-0.6-0.3-0.825-0.525-0.15-0.075-0.3-0.15-0.375-0.225-0.15-0.075-0.3-0.225-0.375-0.3-0.15-0.075-0.225-0.15-0.375-0.225l-0.375-0.375c-0.525-0.375-0.975-0.825-1.425-1.35-0.075-0.075-0.225-0.225-0.3-0.375-0.15-0.075-0.225-0.225-0.375-0.375-0.225-0.225-0.375-0.525-0.6-0.75-0.075-0.15-0.225-0.3-0.3-0.45s-0.15-0.225-0.225-0.375c-0.075-0.075-0.15-0.225-0.225-0.375-0.15-0.15-0.225-0.3-0.3-0.45-0.15-0.3-0.3-0.525-0.45-0.825s-0.3-0.6-0.375-0.9c-0.15-0.375-0.3-0.675-0.375-0.975-0.075-0.15-0.15-0.3-0.15-0.45-0.075-0.15-0.075-0.3-0.15-0.45-0.075-0.3-0.15-0.6-0.225-0.975l-0.225-0.9c0-0.15 0-0.3-0.075-0.45v-0.3s-0.075-0.15-0.075-0.225v-0.45-0.525c-0.075-0.675-0.075-1.35 0-2.025s0.15-1.275 0.225-1.95l0.225-0.9s0.225-0.675 0.3-0.975c0-0.15 0.075-0.225 0.15-0.375 0.075-0.225 0.075-0.375 0.15-0.525 0.15-0.3 0.225-0.6 0.375-0.825l0.45-0.9c0.075-0.15 0.15-0.375 0.225-0.525s0.15-0.3 0.3-0.375l0.225-0.45s0.15-0.225 0.225-0.375 0.225-0.3 0.3-0.45c0.15-0.075 0.225-0.225 0.3-0.375 0.375-0.525 0.825-0.975 1.275-1.425 0.225-0.225 0.45-0.525 0.75-0.675 0.225-0.225 0.45-0.45 0.75-0.675 0.075-0.075 0.225-0.15 0.375-0.3 0.075-0.075 0.225-0.15 0.3-0.225 0.15-0.075 0.3-0.225 0.45-0.3 0.075-0.075 0.225-0.15 0.375-0.225 0.525-0.375 1.125-0.675 1.725-0.975l0.45-0.225c0.075 0 0.225-0.075 0.375-0.15 0.3-0.15 0.675-0.225 0.975-0.375 0.3-0.075 0.6-0.225 0.975-0.3 0.15 0 0.3-0.075 0.45-0.075 0.15-0.075 0.3-0.075 0.45-0.15 0.3-0.075 0.6-0.15 0.975-0.15 0.15 0 0.3-0.075 0.45-0.075 0.225 0 0.375-0.075 0.525-0.075 0.675-0.075 1.275-0.075 1.95-0.075 0.375 0 0.675 0.075 1.05 0.075 0.3 0 0.675 0.075 0.975 0.15 0.3 0 0.6 0.075 0.9 0.15 0.225 0 0.375 0.075 0.525 0.075 0.15 0.075 0.3 0.075 0.45 0.075 0.6 0.225 1.2 0.375 1.8 0.6 0.15 0.075 0.375 0.15 0.525 0.225l0.45 0.225s0.3 0.15 0.375 0.225l1.35 0.675c0.225 0.15 0.525 0.375 0.75 0.525 0.15 0.075 0.3 0.225 0.375 0.3 0.075 0 0.15 0.075 0.225 0.15 0.075 0 0.15 0.075 0.15 0.15 0.15 0.075 0.3 0.15 0.375 0.225 0.15 0.15 0.3 0.225 0.375 0.375h-4.875c-0.075 0-0.075 0-0.15-0.075-0.3-0.075-0.6-0.225-0.9-0.375-0.15-0.075-0.3-0.15-0.525-0.15-0.15-0.075-0.3-0.15-0.45-0.15-0.3-0.15-0.6-0.225-0.9-0.3s-0.675-0.075-0.975-0.15c-0.675-0.15-1.35-0.15-2.025-0.225-0.6 0-1.275 0-1.875 0.15-0.675 0.075-1.35 0.15-1.95 0.375-0.375 0.075-0.675 0.15-0.975 0.3-0.15 0-0.3 0.075-0.45 0.15-0.15 0-0.225 0.075-0.375 0.15-0.225 0.075-0.375 0.15-0.6 0.225-0.075 0.075-0.225 0.15-0.375 0.225-0.3 0.15-0.6 0.3-0.9 0.525-0.225 0.15-0.525 0.3-0.75 0.45-0.225 0.225-0.525 0.375-0.75 0.6-0.15 0.075-0.225 0.225-0.375 0.3-0.15 0.15-0.3 0.225-0.375 0.375-0.3 0.225-0.525 0.45-0.75 0.75-0.225 0.225-0.375 0.45-0.6 0.675-0.075 0.15-0.15 0.225-0.3 0.375-0.075 0.15-0.15 0.225-0.3 0.375l-0.225 0.45c-0.075 0.075-0.15 0.225-0.225 0.375s-0.225 0.225-0.3 0.375c-0.075 0.225-0.15 0.375-0.225 0.6-0.075 0.075-0.15 0.225-0.15 0.3-0.075 0.15-0.225 0.3-0.225 0.525-0.15 0.3-0.3 0.6-0.375 0.9s-0.225 0.6-0.3 0.975c0 0.15-0.075 0.225-0.075 0.375-0.075 0.15-0.075 0.375-0.075 0.525-0.075 0.15-0.075 0.3-0.075 0.45-0.075 0.225-0.075 0.375-0.075 0.525-0.075 0.3-0.075 0.675-0.075 0.975zm28.8 13.125h9.9s-0.075 0.15-0.075 0.225c-0.15 0.225-0.3 0.525-0.45 0.75-0.15 0.3-0.3 0.6-0.45 0.825-0.075 0.15-0.225 0.3-0.3 0.45-0.075 0.075-0.15 0.225-0.225 0.375s-0.15 0.225-0.225 0.375c-0.15 0.15-0.225 0.225-0.3 0.375s-0.15 0.3-0.3 0.375c0 0.075-0.075 0.15-0.075 0.225-0.075 0-0.075 0.075-0.075 0.075l-0.075 0.075c0 0.075-0.075 0.075-0.075 0.075 0 0.075-0.075 0.075-0.075 0.15l-0.15 0.15c-0.075 0.15-0.225 0.3-0.3 0.45-0.45 0.45-0.825 0.975-1.275 1.425-0.225 0.225-0.45 0.45-0.6 0.675-0.3 0.225-0.525 0.45-0.825 0.75-0.45 0.375-0.9 0.825-1.425 1.2-0.45 0.375-0.975 0.825-1.5 1.125-0.15 0.15-0.375 0.3-0.525 0.45-0.075 0-0.225 0.075-0.3 0.15-0.3 0.225-0.6 0.375-0.9 0.6-0.6 0.3-1.2 0.675-1.8 0.975s-1.2 0.525-1.8 0.825c-0.525 0.225-1.125 0.45-1.725 0.675-0.6 0.15-1.275 0.375-1.875 0.525-0.375 0.075-0.675 0.15-1.05 0.3-0.15 0-0.3 0.075-0.45 0.075-0.225 0-0.375 0.075-0.6 0.075-0.6 0.15-1.275 0.225-1.95 0.3-0.6 0.075-1.275 0.15-1.875 0.15-0.675 0.075-1.275 0.075-1.95 0.075-0.3-0.075-0.675-0.075-0.975-0.075-0.375 0-0.75-0.075-1.125-0.075-0.15 0-0.3-0.075-0.45-0.075s-0.375-0.075-0.525-0.075c-0.375 0-0.675-0.075-1.05-0.15-0.6-0.075-1.275-0.225-1.875-0.375s-1.2-0.375-1.8-0.525c-0.3-0.15-0.6-0.225-0.9-0.3-0.375-0.15-0.675-0.3-0.975-0.375-0.3-0.15-0.675-0.3-0.975-0.45-0.15-0.075-0.3-0.075-0.375-0.15-0.225-0.15-0.375-0.225-0.6-0.3-0.6-0.3-1.125-0.6-1.725-0.9-0.525-0.375-1.05-0.675-1.575-1.05l-1.575-1.125c-0.225-0.225-0.525-0.45-0.825-0.675-0.225-0.225-0.45-0.45-0.75-0.675-0.225-0.225-0.525-0.45-0.75-0.75-0.225-0.15-0.375-0.375-0.6-0.6-0.45-0.45-0.9-0.975-1.275-1.425-0.225-0.3-0.45-0.525-0.6-0.75-0.225-0.225-0.375-0.525-0.6-0.75-0.15-0.225-0.3-0.525-0.525-0.825-0.075-0.075-0.15-0.225-0.225-0.375s-0.225-0.3-0.3-0.45c-0.15-0.225-0.3-0.45-0.45-0.75-0.075-0.15-0.15-0.225-0.225-0.375s-0.15-0.3-0.225-0.375c-0.3-0.6-0.6-1.2-0.825-1.725l-0.225-0.45c0-0.15-0.15-0.375-0.15-0.525l-0.225-0.45c0-0.15-0.075-0.3-0.15-0.45-0.225-0.6-0.375-1.2-0.6-1.8l-0.225-0.9c-0.075-0.375-0.15-0.675-0.225-0.975s-0.15-0.675-0.225-1.05c0-0.3-0.075-0.6-0.15-0.9-0.075-0.675-0.15-1.35-0.15-2.025-0.075-0.6-0.075-1.275-0.075-1.875 0-0.675 0-1.35 0.075-2.025 0-0.3 0.075-0.675 0.075-0.975 0.075-0.3 0.075-0.675 0.15-0.975s0.075-0.675 0.15-0.975c0-0.15 0.075-0.225 0.075-0.375 0-0.225 0.075-0.375 0.075-0.525 0.075-0.075 0.075-0.15 0.075-0.225s0.075-0.15 0.075-0.3 0.075-0.3 0.075-0.375c0.075-0.375 0.225-0.675 0.3-0.975 0.15-0.675 0.375-1.35 0.6-1.95s0.45-1.2 0.75-1.725l0.225-0.45c0-0.075 0.075-0.15 0.075-0.3 0.075 0 0.075 0 0.075-0.075l0.075-0.075v-0.15s0.075 0 0.075-0.075 0.075-0.15 0.15-0.225c0.075-0.15 0.075-0.3 0.15-0.375 0.15-0.3 0.3-0.525 0.45-0.825s0.375-0.525 0.525-0.825c0.075-0.15 0.15-0.225 0.225-0.375 0.15-0.15 0.225-0.3 0.3-0.45s0.225-0.225 0.3-0.375 0.15-0.225 0.225-0.375c0.225-0.225 0.375-0.525 0.6-0.75 0.15-0.225 0.375-0.45 0.6-0.75 0.15-0.225 0.375-0.45 0.6-0.675 0.225-0.3 0.45-0.525 0.675-0.75l0.3-0.3c0.075-0.15 0.225-0.225 0.3-0.3 0.225-0.225 0.45-0.45 0.75-0.675l1.575-1.35c0.225-0.225 0.525-0.375 0.825-0.6 0.225-0.225 0.525-0.375 0.825-0.6 0.525-0.375 1.125-0.675 1.65-0.975 0.525-0.375 1.125-0.6 1.65-0.9 0.3-0.15 0.6-0.3 0.9-0.375 0.3-0.15 0.6-0.3 0.975-0.45 0.3-0.15 0.6-0.225 0.975-0.375 0.3-0.075 0.6-0.225 0.975-0.3 0.6-0.225 1.275-0.375 1.95-0.525 0.6-0.15 1.2-0.3 1.8-0.375 0.675-0.15 1.275-0.225 1.95-0.3 0.3 0 0.675-0.075 1.05-0.075h0.975 1.05 1.05c0.3 0.075 0.6 0.075 0.975 0.075 0.3 0.075 0.6 0.075 0.9 0.15 0.6 0.075 1.275 0.15 1.875 0.3 0.675 0.075 1.35 0.225 2.025 0.45 0.15 0 0.3 0.075 0.45 0.075 0.15 0.075 0.3 0.15 0.45 0.15 0.375 0.15 0.75 0.225 1.05 0.375 0.075 0 0.225 0.075 0.3 0.075l0.675 0.225c0.3 0.15 0.525 0.3 0.825 0.375 0.6 0.3 1.125 0.525 1.725 0.825 0.525 0.3 1.125 0.6 1.725 0.975 0.3 0.15 0.6 0.375 0.9 0.6 0.225 0.15 0.525 0.375 0.825 0.525 0.075 0.075 0.225 0.15 0.3 0.225 0.225 0.15 0.375 0.3 0.525 0.45 0.3 0.15 0.525 0.375 0.75 0.6 0.525 0.375 0.975 0.825 1.425 1.2 0.15 0.15 0.3 0.3 0.375 0.45 0.15 0.075 0.225 0.15 0.3 0.3 0.225 0.15 0.45 0.375 0.675 0.6 0.225 0.3 0.45 0.525 0.6 0.75 0.225 0.3 0.45 0.525 0.675 0.825 0.15 0.225 0.375 0.45 0.525 0.675 0.225 0.3 0.375 0.525 0.6 0.75 0.3 0.6 0.675 1.125 0.975 1.65 0.15 0.3 0.375 0.525 0.45 0.825 0.075 0.15 0.15 0.225 0.225 0.375 0.075 0.075 0.075 0.15 0.15 0.225 0 0.075 0.075 0.15 0.075 0.225h-9.9l-0.3-0.3c-0.075-0.15-0.15-0.225-0.3-0.375-0.15-0.225-0.375-0.45-0.6-0.675-0.45-0.375-0.975-0.825-1.425-1.275-0.15-0.075-0.225-0.15-0.375-0.3-0.15-0.075-0.225-0.15-0.375-0.225-0.3-0.225-0.525-0.375-0.825-0.6-0.15-0.075-0.225-0.15-0.375-0.225s-0.225-0.15-0.375-0.225c-0.3-0.15-0.6-0.375-0.9-0.525-0.6-0.3-1.125-0.6-1.725-0.825-0.3-0.075-0.6-0.225-0.9-0.3-0.375-0.15-0.675-0.225-0.975-0.3-0.3-0.15-0.6-0.225-0.975-0.3-0.3-0.075-0.675-0.15-0.975-0.225l-2.025-0.225s-1.35-0.075-1.95-0.075c-0.375 0-0.675 0.075-0.975 0.075s-0.6 0.075-0.975 0.075c-0.6 0.075-1.275 0.15-1.875 0.3s-1.275 0.3-1.875 0.525-1.275 0.45-1.875 0.75l-1.8 0.9c-0.075 0.075-0.15 0.075-0.225 0.15 0 0-0.075 0.075-0.15 0.075-0.075 0.075-0.225 0.15-0.375 0.3-0.15 0.075-0.3 0.15-0.375 0.225-0.15 0.075-0.3 0.15-0.375 0.3-0.525 0.375-1.05 0.75-1.575 1.2-0.45 0.375-0.9 0.825-1.275 1.275-0.45 0.45-0.9 0.975-1.275 1.5-0.375 0.45-0.75 0.975-1.05 1.5-0.375 0.6-0.75 1.2-0.975 1.8l-0.45 0.9c-0.075 0.15-0.15 0.3-0.15 0.45l-0.225 0.45c-0.15 0.6-0.375 1.125-0.525 1.8-0.15 0.6-0.3 1.275-0.45 1.95-0.075 0.6-0.15 1.275-0.15 1.95-0.075 0.375-0.075 0.675-0.075 0.975s0 0.6 0.075 0.975c0 0.6 0.075 1.275 0.15 1.95s0.225 1.275 0.375 1.95 0.375 1.275 0.6 1.875c0.075 0.15 0.15 0.3 0.15 0.45l0.225 0.45c0.075 0.3 0.225 0.6 0.375 0.9l0.225 0.45s0.15 0.225 0.225 0.375c0.15 0.3 0.3 0.6 0.45 0.825 0.375 0.6 0.75 1.125 1.125 1.65s0.825 0.975 1.275 1.425c0.15 0.225 0.375 0.45 0.6 0.675l0.3 0.3c0.15 0.15 0.3 0.225 0.375 0.375 0.225 0.225 0.525 0.375 0.75 0.6s0.525 0.375 0.75 0.6c0.525 0.3 0.975 0.675 1.5 0.975 0.6 0.3 1.2 0.675 1.8 0.9 0.6 0.3 1.2 0.525 1.875 0.75 0.6 0.225 1.2 0.375 1.875 0.525 0.3 0.15 0.675 0.15 1.05 0.225 0.3 0.075 0.6 0.15 0.9 0.15 0.375 0.075 0.675 0.075 0.975 0.15h0.45 0.45 2.025c0.3-0.075 0.675-0.075 0.975-0.15 0.3 0 0.6-0.075 0.975-0.075 0.6-0.15 1.275-0.3 1.875-0.45 0.375-0.15 0.675-0.225 0.975-0.3 0.15-0.075 0.375-0.15 0.525-0.225 0.15 0 0.3-0.075 0.45-0.15 0.3-0.15 0.6-0.225 0.9-0.375l0.9-0.45c0.6-0.3 1.125-0.6 1.65-0.975 0.3-0.15 0.525-0.375 0.825-0.525 0.075-0.075 0.225-0.225 0.375-0.3 0.075-0.075 0.225-0.225 0.375-0.3 0.45-0.375 0.975-0.825 1.425-1.275s0.825-0.9 1.275-1.35z"/>
</g>
</svg>
