<?xml version="1.0" encoding="iso-8859-1"?>
<!-- Generator: Adobe Illustrator 18.1.1, SVG Export Plug-In . SVG Version: 6.00 Build 0)  -->
<svg xmlns="http://www.w3.org/2000/svg" xmlns:xlink="http://www.w3.org/1999/xlink" version="1.1" id="Capa_1" x="0px" y="0px" viewBox="0 0 224.004 224.004" style="enable-background:new 0 0 224.004 224.004;" xml:space="preserve" width="512px" height="512px">
<g>
	<path d="M94.727,35.815c-0.276-0.094-0.553-0.188-0.829-0.283C93.767,35.584,94.096,35.685,94.727,35.815z" fill="#1e2127"/>
	<path d="M223.719,128.906c-2.848-2.53-12.656,0.563-14.377,10.79c-2.9-1.225-5.801-2.436-8.702-3.651   c3.372-2.345,6.003-3.065,9.827-4.073c-3.336-0.485-6.822,0.494-9.856,2.194c1.902-1.838,3.571-12.696,2.258-12.583   c-1.712,20.408-20.688,15.483-31.571,10.583c0.549-2.996,1.102-5.995,1.658-8.987c0,0,7.169-3.783,12.01-14.029   c1.576-3.333,2.57-7.146,3.186-10.776c5.074-3.316,10.156-6.629,15.238-9.94c-2.232,0.976-4.474,1.956-6.702,2.933   c-2.171-6.14-1.384-11.11-1.136-15.905c-1.228,5.621-1.836,11.249-1.105,16.891c-0.174,0.073-0.348,0.147-0.52,0.231   c-1.762,0.763-3.516,1.54-5.277,2.306c0.701-6.007,0.479-10.803,0.479-10.803s-0.502,1.993-1.384,5.427   c-5.019-0.538-7.526-5.921-9.685-11.993c1.157,6.083,3.717,11.421,8.785,15.443c-0.5,5.989-1.303,12.5-5.121,17.253   c-5.717-0.04-6.695-6.354-8.319-11.829c0,0,0.738,7.422,2.296,11.297c0.928,2.312,2.523,3.721,3.66,4.477   c-3.634,4.988-7.719,6.751-7.719,6.751c-0.99-4.91-3.59-6.866-6.113-8.346c-0.537,0.636-0.17-0.109-0.703,0.538   c2.719,2.176,4.928,3.668,5.505,9.746c-0.368,2.461-0.517,6.523-0.884,8.977c-6.881,0.027-13.764,0.06-20.643,0.08   c0,0,0.297-4.18-0.979-10.3c-1.275-6.143-4.135-12.61-4.135-12.61c1.346-3.2-2.049-9.359-2.049-9.359l1.047-43.597l4.795-3.161   c1.307-1.001,3.232-3.129,5.157-5.446c4.384-0.042,8.765-0.097,13.145-0.131c0,0,1.079-3.216,3.242-8.98   c0.367-0.968,0.839-1.974,1.38-2.979c1.635-0.21,5.367-0.943,8.206-3.357c1.048-0.897,1.966-1.912,2.726-2.89   c1.783-0.176,4.361-0.758,7.102-2.469c0.469-0.288,0.91-0.625,1.328-0.996c1.296,1.288,3.918,3.499,6.633,3.638   c3.836,0.196,5.022-1.274,5.022-1.274s-3.612,0.977-6.804-0.996c-1.876-1.163-2.65-2.461-2.975-3.333   c2.882-3.613,4.296-8.222,4.296-8.222c-0.44-0.218-0.882-0.439-1.321-0.66c0,0-1.09,3.852-5.366,8.953   c-2.229,2.672-4.96,3.748-7.048,4.167c1.336-1.971,2.014-3.579,2.014-3.579c-0.152-0.228-0.3-0.446-0.452-0.677   c0.583-2.343,1.638-7.399,1.076-11.238c-0.085-0.568-0.167-1.104-0.241-1.635c0.872-0.371,2.504-1.181,3.973-2.494   c2.137-1.913,3.59-7.485,3.59-7.485c-0.412-0.068-0.826-0.148-1.234-0.227c0,0,0,0-1.621,3.85c-1.15,2.741-3.635,4.056-4.971,4.583   c-0.467-3.125-0.753-4.971-0.753-4.971c-0.538,0.321-1.064,0.638-1.595,0.956c0,0,1.525,8.381,1.225,12.892   c-0.301,4.495-1.644,6.744-1.644,6.744c0.015,0,0.029,0,0.048,0.006c-2.27,3.509-5.273,6.099-9.266,7.482   c2.404-3.641,4.979-6.575,4.979-6.575c-0.438-0.326-0.875-0.654-1.312-0.976c0,0-1.733,0.906-4.055,4.125   c-0.834-0.911-3.098-3.596-4.516-7.122c0.918-0.722,2.46-2.213,4.396-5.1c3.212-4.795,5.916-12.171,5.916-12.171   c-0.623-0.118-1.231-0.232-1.852-0.344c0,0-0.539,4.281-3.801,9.543c0.141-0.953,0.182-2.184,0.056-3.791   C171.674,3.893,168.005,0,168.005,0c0.887,5.218,1.767,10.444,2.647,15.669c-1.553,2.177-2.875,3.533-3.752,4.318   c-0.316-1.041-0.531-2.142-0.611-3.271c-0.484-6.766-0.465-8.696-0.465-8.696s-1.896,5.771-1.162,12.865   c0.635,6.062,3.796,10.742,4.697,11.973c-2.819,4.971-6.202,11.828-6.202,11.828c-2.614-0.187-5.233-0.368-7.853-0.565   c2.478-3.163,4.465-5.902,4.465-5.902c-0.441-0.548-1.527-0.469-1.969-1.005c-10.693,12.266-13.984,21.183-29.353,8.493   c3.932-4.531,7.292-9.884,8.278-16.471c7.021-0.818,13.223-5.674,12.115-15.296c0,0-0.853,5.516-3.945,9.262   c1.405-2.822,1.746-12.778-1.822-16.084c3.754,8.717,2.533,18.542-6.039,19.511c0.302-3.586,0.113-6.378,0.113-6.378   s-0.244,4.713-1.945,10.643c-4.992-0.15-9.723-4.096-10.602-9.048c7.389-0.945,8.061-8.938,7.357-15.176   c-0.553,3.165,0.296,13.939-7.73,13.402c-1.061-5.875,1.365-11.867,1.365-11.867s-2.237,3.513-3.2,8.14   c-4.101-1.383-4.883-3.161-6.317-8.256c0.221,4.097,2.382,9.462,5.989,10.361c-0.122,1.159-0.134,2.355-0.013,3.563   c0.025,7.067,8.747,10.779,12.407,11.236c-0.022,0.062-0.039,0.112-0.058,0.168c-2.051,5.936-6.34,9.578-7.64,10.574   c-3.88-4.503-5.589-10.399-5.589-10.399s1.514,9.032,6.493,14.876c0.019,0.025,0.036,0.053,0.062,0.067   c-17.49,2.017-16.858-5.788-21.314-23.165c0,0,0.844,6.342,2.538,12.559c-1.731-0.236-11.296-1.508-14.224-2.115   c5.042,1.72,10.087,3.432,15.136,5.166c1.266,3.812,2.874,7.152,4.834,8.307c3.641,2.168,10.533,1.708,14.797,1.142   c4.682,4.63,7.062,8.182,7.062,8.182l-3.073,30.946l0.846,4.451c-1.074,0.629-2.066,1.622-2.741,3.5c0,0-2.286-1.56-4.02-4.979   c0.741-0.316,1.802-0.951,2.555-2.208c1.257-2.117,2.317-6.434,2.317-6.434c-1.426,3.046-2.547,6.688-5.951,5.988   c-1.861-3.303-1.793-7.277-1.584-10.908c3.355-1.755,5.33-4.618,6.535-8.092c-1.793,3.343-3.742,6.233-6.777,5.924   c-0.234-2.149-0.364-3.401-0.364-3.401s-0.538,2.819-0.632,6.485c-0.98-0.679-1.963-1.358-2.949-2.035   c-0.095-0.06-0.188-0.133-0.285-0.196c0.908-3.265,1.024-6.692,0.773-10.194c-0.26,2.879-0.215,5.94-2.022,9.323   c-1.246-0.862-2.489-1.725-3.741-2.589c2.742,2.608,5.486,5.217,8.225,7.826c0.061,2.248,0.327,4.632,0.982,6.818   c2.014,6.705,5.964,9.861,5.964,9.861c0.077,1.852,0.146,3.704,0.226,5.56c-6.891,1.554-18.604,2.1-17.895-10.265   c-0.778-0.23-0.704,6.492,0.287,7.782c-1.666-1.396-3.658-2.423-5.696-2.547c2.192,1.074,3.698,1.841,5.507,3.657   c-1.83,0.36-3.663,0.714-5.492,1.077c-0.154-6.302-5.732-9.377-7.642-8.225c1.291-0.536,7.337,3.519,6.276,8.744   c-1.214,0.209-2.436,0.43-3.652,0.644c0.182,0.688,0.355,1.389,0.534,2.08c1.302-0.464,2.607-0.928,3.91-1.392   c2.047,3.463-0.825,10.309-4.418,9.965c-0.025,0.896,7.358-0.052,5.443-10.124c1.875-0.672,3.509-1.044,5.384-1.713   c4.404,2.178,8.458,4.092,13.411,2.663c2.024-0.582,3.673-0.847,3.673-0.847c-0.472,2.47-1.841,4.626-4.105,6.476   c1.461-0.737,2.893-1.071,4.481-4.422c2.11,0.325,4.214,0.66,6.327,0.987l2.381,12.417l-24.063,11.808   c0.044,0.205-11.31,7.648-11.258,7.869L91.795,123.18c1.251-2.813,2.581-6.107,3.464-9.092c0.264,0,0.527-0.012,0.787-0.03   l0.101-0.483l-2.797-5.518c-0.049,0.229-0.097,0.466-0.152,0.698c-1.421-0.107-2.88-0.326-4.282-0.698   C82.575,106.374,78.14,98.6,78.14,98.6s3.889,9.376,9.948,13.623c1.003,0.715,2.136,1.186,3.317,1.474   c-2.006,4.016-4.244,5.933-4.244,5.933c-5.119-3.746-10.232-7.492-15.351-11.247c0,0,5.135-8.422,2.615-10.512   c-2.524-2.089-4.161-8.541-4.161-8.541c-3.715-12.387,2.104-7.815-1.606-20.206c0,0,4.294-1.948,8.084-5.559   c3.411,0.527,8.903,1.018,11.839-0.644c1.581-0.892,2.909-3.528,3.967-6.567c4.273-1.349-3.209,3.146,1.06,1.801   c0.585,0.232,1.396-4.399-0.293-4.212c1.428-4.931,2.182-9.98,2.182-9.98c-3.776,13.803-3.364,20.049-17.309,18.121   c0.009-0.018,0.022-0.037,0.035-0.054c4.059-4.58,5.386-11.773,5.386-11.773s-1.446,4.69-4.603,8.215   c-1.03-0.827-4.403-3.81-5.973-8.594c-0.013-0.045-0.02-0.086-0.042-0.133c2.932-0.294,9.941-3.101,10.055-8.755   c0.113-0.962,0.107-1.915,0.03-2.842c2.894-0.662,4.677-4.896,4.916-8.166c-1.212,4.044-1.862,5.438-5.153,6.477   c-0.71-3.717-2.455-6.565-2.455-6.565s1.865,4.836,0.944,9.509c-6.423,0.281-5.609-8.31-6.011-10.848   c-0.643,4.968-0.206,11.367,5.686,12.257c-0.755,3.937-4.583,7.004-8.574,7.041c-1.291-4.771-1.427-8.55-1.427-8.55   s-0.189,2.239,0.013,5.104c-6.839-0.927-7.695-8.795-4.585-15.704c-2.898,2.581-2.746,10.539-1.65,12.82   c-2.433-3.048-3.039-7.463-3.039-7.463c-1.01,7.657,3.892,11.662,9.482,12.435c0.71,5.279,3.331,9.625,6.419,13.306   c-12.437,9.861-14.958,2.688-23.355-7.311c-0.351,0.422-1.229,0.334-1.584,0.766c0,0,1.562,2.23,3.497,4.802   c-2.09,0.099-4.192,0.201-6.282,0.31c0,0-2.62-5.543-4.81-9.572c0.733-0.971,3.319-4.645,3.899-9.483   c0.676-5.648-0.765-10.298-0.765-10.298s-0.018,1.549-0.482,6.943c-0.078,0.898-0.264,1.771-0.527,2.597   c-0.693-0.644-1.733-1.743-2.952-3.513c0.772-4.161,1.543-8.32,2.314-12.47c0,0-2.988,3.05-3.443,7.676   c-0.128,1.276-0.107,2.262-0.003,3.02c-2.543-4.253-2.918-7.682-2.918-7.682c-0.494,0.078-0.987,0.158-1.486,0.228   c0,0,2.069,5.947,4.573,9.834c1.516,2.343,2.728,3.561,3.451,4.159c-1.174,2.796-3.013,4.892-3.689,5.614   c-1.824-2.616-3.193-3.375-3.193-3.375c-0.35,0.256-0.705,0.503-1.062,0.759c0,0,2.024,2.398,3.899,5.34   c-3.169-1.174-5.54-3.303-7.313-6.142c0.021-0.007,0.021-0.007,0.041-0.007c0,0-1.042-1.818-1.224-5.421   c-0.19-3.604,1.134-10.276,1.134-10.276c-0.423-0.266-0.845-0.529-1.263-0.793c0,0-0.256,1.474-0.672,3.957   c-1.054-0.438-3.03-1.531-3.916-3.744c-1.243-3.111-1.243-3.111-1.243-3.111c-0.331,0.06-0.664,0.107-0.992,0.169   c0,0,1.096,4.478,2.777,6.043c1.16,1.068,2.45,1.745,3.144,2.062c-0.069,0.416-0.139,0.847-0.208,1.304   c-0.5,3.049,0.285,7.103,0.714,8.995c-0.117,0.177-0.238,0.355-0.368,0.532c0,0,0.523,1.294,1.571,2.897   c-1.671-0.378-3.837-1.286-5.585-3.462c-3.352-4.151-4.172-7.252-4.172-7.252c-0.353,0.175-0.708,0.344-1.061,0.51   c0,0,1.061,3.709,3.326,6.645c-0.268,0.694-0.904,1.716-2.416,2.608c-2.577,1.517-5.444,0.668-5.444,0.668s0.926,1.209,3.984,1.113   c2.173-0.062,4.295-1.781,5.348-2.773c0.332,0.288,0.685,0.56,1.053,0.807c2.164,1.42,4.217,1.932,5.645,2.098   c0.59,0.8,1.31,1.622,2.146,2.361c2.225,1.981,5.2,2.636,6.504,2.838c0.425,0.801,0.792,1.612,1.065,2.397   c1.655,4.654,2.481,7.233,2.481,7.233c3.503,0.118,7.006,0.23,10.506,0.345c1.512,1.896,3.018,3.621,4.053,4.449   c2.944,2.356,3.789,2.62,3.789,2.62c3.21,13.245-3.109,9.518,0.1,22.751c0,0-2.784,4.865-1.746,7.448c0,0-2.365,5.118-3.464,9.989   c-1.096,4.877-0.909,8.237-0.909,8.237c-5.5-0.152-10.996-0.304-16.489-0.452c-0.274-1.983-0.33-5.217-0.598-7.191   c0.528-4.85,2.322-6.002,4.515-7.685c-0.419-0.521-0.133,0.072-0.549-0.441c-2.043,1.136-4.139,2.654-4.998,6.548   c0,0-3.239-1.481-6.07-5.524c0.908-0.594,2.204-1.684,2.969-3.509c1.297-3.085,1.976-8.988,1.976-8.988   c-1.364,4.334-2.227,9.366-6.792,9.296c-2.993-3.867-3.555-9.083-3.884-13.886c4.103-3.111,6.21-7.34,7.203-12.171   c-1.789,4.813-3.855,9.061-7.87,9.404c-0.671-2.76-1.044-4.364-1.044-4.364s-0.237,3.823,0.251,8.647   c-1.394-0.643-2.798-1.295-4.191-1.949c-0.138-0.06-0.273-0.125-0.411-0.185c0.654-4.493,0.234-9.007-0.676-13.518   c0.138,3.834,0.702,7.825-1.101,12.69c-1.775-0.817-3.542-1.647-5.323-2.466c4.019,2.739,8.035,5.48,12.053,8.222   c0.451,2.906,1.191,5.972,2.408,8.663c3.745,8.276,9.43,11.429,9.43,11.429c0.404,2.414,0.812,4.809,1.214,7.217   c-8.753,3.709-23.978,7.303-25.095-9.032c-1.046-0.114,0.149,8.583,1.647,10.094c-2.404-1.421-5.172-2.262-7.845-1.936   c3.041,0.874,5.137,1.507,7.799,3.437c-2.335,0.918-4.664,1.834-6.997,2.751c-1.253-8.196-9.046-10.85-11.356-8.877   c1.598-1.011,10.169,2.806,9.653,9.892c-1.555,0.58-3.108,1.164-4.668,1.743c0.341,0.864,0.693,1.729,1.035,2.582   c1.632-0.917,3.26-1.849,4.885-2.775c3.264,4.019,0.633,13.683-4.119,14.108c0.108,1.181,9.613-1.875,5.439-14.566   c2.338-1.338,4.417-2.211,6.751-3.561c6.12,1.773,11.736,3.285,17.977,0.201c2.546-1.26,4.667-2,4.667-2   c-0.216,3.334-1.644,6.486-4.3,9.465c1.78-1.323,3.604-2.124,5.124-6.889c6.136-0.186,12.273-0.374,18.41-0.559   c0,0,1.035,3.106,12.389,11.213c4.875,3.471,8.431,6.08,10.904,7.928c-0.528,0.627-0.528,0.627-0.528,0.627   c1.129,1.407,2.266,2.818,3.404,4.23c-1.954,0.096-3.912,0.201-5.869,0.309c-1.398,0.071-2.792,0.149-4.19,0.219   c0.778,1.938,4.746,1.982,4.746,1.982c-0.19,2.573-0.385,5.146-0.593,7.723c0.536,0.217,1.061,0.438,1.588,0.658   c0.195-2.46,0.394-4.928,0.588-7.391c1.676-0.301,3.353-0.612,5.033-0.908c0.159,0.242,0.326,0.49,0.49,0.738   c-1.375,1.797-4.923,6.77-8.622,14.572c-3.707,7.828-3.14,18.234-2.313,22.357c-0.697,10.006,14.086,39.641,14.086,39.642   c10.238-0.532,20.471-1.061,30.709-1.586c-23.294-18.237-21.211-56.401-7.176-60.86c3.07-2.229,8.188-5.868,15.935-11.152   c14.369-9.822,15.716-13.672,15.716-13.672c7.674,0.415,15.341,0.822,23.015,1.229c1.813,6.01,4.079,7.049,6.284,8.764   c-3.266-3.807-5-7.789-5.201-11.963c0,0,2.643,0.986,5.805,2.635c7.746,4.035,14.805,2.303,22.49,0.253   c2.9,1.753,5.484,2.907,8.382,4.657c-5.468,15.754,6.362,19.842,6.528,18.369c-5.938-0.658-9.05-12.822-4.893-17.758   c2.018,1.199,4.039,2.407,6.059,3.613c0.443-1.074,0.9-2.139,1.35-3.214c-1.94-0.771-3.869-1.544-5.805-2.317   C210.942,132.119,221.731,127.595,223.719,128.906z" fill="#1e2127"/>
</g>
<g>
</g>
<g>
</g>
<g>
</g>
<g>
</g>
<g>
</g>
<g>
</g>
<g>
</g>
<g>
</g>
<g>
</g>
<g>
</g>
<g>
</g>
<g>
</g>
<g>
</g>
<g>
</g>
<g>
</g>
</svg>
